<mxfile host="app.diagrams.net" modified="2023-07-02T17:06:26.663Z" agent="Mozilla/5.0 (Macintosh; Intel Mac OS X 10_15_7) AppleWebKit/605.1.15 (KHTML, like Gecko) Version/16.5.1 Safari/605.1.15" version="21.5.2" etag="Y_IZfveNheWncOYKsBwL" type="github">
  <diagram name="Page-1" id="RDK8f4OfT9Y9F3vQ1YlJ">
    <mxGraphModel>
      <root>
        <mxCell id="0" />
        <mxCell id="1" parent="0" />
      </root>
    </mxGraphModel>
  </diagram>
</mxfile>
